<?xml version="1.0" encoding="utf-8"?>
<!-- Generator: Adobe Illustrator 23.0.1, SVG Export Plug-In . SVG Version: 6.00 Build 0)  -->
<svg version="1.1" id="Layer_1" xmlns="http://www.w3.org/2000/svg" xmlns:xlink="http://www.w3.org/1999/xlink" x="0px" y="0px"
	 viewBox="0 0 1280 1024" style="enable-background:new 0 0 1280 1024;" xml:space="preserve">
<style type="text/css">
	.st0{fill:#FFFFFF;}
</style>
<g>
	
		<image style="overflow:visible;opacity:0.2;" width="831" height="1017" xlink:href="3AE04C49.png"  transform="matrix(1 0 0 1 254 6)">
	</image>
	<g>
		<g>
			<path class="st0" d="M455.8,511.1c0-38.7,0-77.4,0-116c0-6.9,0-6.9,6.9-6.9c38.9,0,77.7-0.9,116.5,0.2c51,1.4,88.2,26,110.4,71.7
				c13.2,27.1,15.6,56.4,6.5,85.3c-10.7,34-32.1,59.9-64.6,75.8c-17.7,8.7-36.5,12.5-56.2,12.5c-37.5-0.1-74.9,0-112.4,0
				c-7.2,0-7.2,0-7.2-7C455.8,588.1,455.8,549.6,455.8,511.1z"/>
			<path class="st0" d="M1072.1,510.8c0-263.4-205.3-478.8-464.5-495.2l-341.5-1l0.1,186h301.2c0.1,0.1,0.2,0.1,0.2,0.2
				c2.9,0,5.7-0.1,8.3-0.1c2.8,0,5.6,0,8.4,0.1c167.4,4.5,301.7,141.5,301.7,310c0,156.4-115.9,285.8-266.5,307c-14,2-28.4,3-42.9,3
				c0,0,0,0,0,0H455.8l-2.4,186h111c3.8,0.1,7.7,0.1,11.5,0.1c3.9,0,7.8-0.1,11.7-0.1l20-0.9C866.9,989.6,1072.1,774.2,1072.1,510.8
				z"/>
		</g>
	</g>
</g>
</svg>
